<?xml version="1.0" encoding="UTF-8" standalone="no"?>
<svg
   width="16"
   height="16"
   version="1"
   id="svg566"
   sodipodi:docname="spotty-symbolic.svg"
   xml:space="preserve"
   inkscape:version="1.4.2 (ebf0e940d0, 2025-05-08)"
   xmlns:inkscape="http://www.inkscape.org/namespaces/inkscape"
   xmlns:sodipodi="http://sodipodi.sourceforge.net/DTD/sodipodi-0.dtd"
   xmlns:xlink="http://www.w3.org/1999/xlink"
   xmlns="http://www.w3.org/2000/svg"
   xmlns:svg="http://www.w3.org/2000/svg"><sodipodi:namedview
     id="namedview1"
     pagecolor="#ffffff"
     bordercolor="#000000"
     borderopacity="0.25"
     inkscape:showpageshadow="2"
     inkscape:pageopacity="0.0"
     inkscape:pagecheckerboard="0"
     inkscape:deskcolor="#d1d1d1"
     inkscape:zoom="37.375"
     inkscape:cx="7.2508361"
     inkscape:cy="9.5785953"
     inkscape:window-width="2560"
     inkscape:window-height="1403"
     inkscape:window-x="0"
     inkscape:window-y="0"
     inkscape:window-maximized="1"
     inkscape:current-layer="svg566" /><defs
     id="defs570"><linearGradient
       id="linearGradient873"><stop
         style="stop-color:#0b5124;stop-opacity:1;"
         offset="0"
         id="stop869" /><stop
         style="stop-color:#43e57d;stop-opacity:1;"
         offset="0.4086079"
         id="stop877" /><stop
         style="stop-color:#0b5124;stop-opacity:1;"
         offset="0.80541694"
         id="stop881" /><stop
         style="stop-color:#2ce26d;stop-opacity:1;"
         offset="1"
         id="stop883" /></linearGradient><linearGradient
       xlink:href="#linearGradient873"
       id="linearGradient875"
       x1="9.9999964"
       y1="66.000001"
       x2="118"
       y2="66.000001"
       gradientUnits="userSpaceOnUse"
       gradientTransform="matrix(1.1111111,0,0,1.0925926,-7.1111091,-6.111112)" /><linearGradient
       id="linearGradient974"><stop
         style="stop-color:#003a99;stop-opacity:1;"
         offset="0"
         id="stop962" /><stop
         id="stop964"
         offset="0.04166667"
         style="stop-color:#3381ff;stop-opacity:1;" /><stop
         style="stop-color:#003a99;stop-opacity:1;"
         offset="0.08333334"
         id="stop966" /><stop
         id="stop968"
         offset="0.91666669"
         style="stop-color:#003a99;stop-opacity:1;" /><stop
         style="stop-color:#3381ff;stop-opacity:1;"
         offset="0.95833331"
         id="stop970" /><stop
         style="stop-color:#003a99;stop-opacity:1;"
         offset="1"
         id="stop972" /></linearGradient><linearGradient
       y2="44"
       x2="464"
       y1="44"
       x1="48"
       gradientTransform="matrix(0.25,0,0,0.25,0,53)"
       gradientUnits="userSpaceOnUse"
       id="linearGradient1747"
       xlink:href="#linearGradient974" /><inkscape:path-effect
       effect="fillet_chamfer"
       id="path-effect1"
       is_visible="true"
       lpeversion="1"
       nodesatellites_param="F,0,0,1,0,9.858653,0,1 @ F,0,1,1,0,9.858653,0,1 @ F,0,1,1,0,9.858653,0,1 @ F,0,1,1,0,9.858653,0,1 @ F,0,1,1,0,9.858653,0,1 @ F,0,1,1,0,9.858653,0,1"
       radius="0"
       unit="px"
       method="auto"
       mode="F"
       chamfer_steps="1"
       flexible="false"
       use_knot_distance="true"
       apply_no_radius="true"
       apply_with_radius="true"
       only_selected="false"
       hide_knots="false" /><inkscape:path-effect
       effect="perspective-envelope"
       up_left_point="-224.3042,-13.195479"
       up_right_point="-178.29733,-13.195479"
       down_left_point="-224.3042,28.172787"
       down_right_point="-178.29733,28.172787"
       id="path-effect3"
       is_visible="true"
       lpeversion="1"
       deform_type="perspective"
       horizontal_mirror="true"
       vertical_mirror="false"
       overflow_perspective="false" /><inkscape:path-effect
       effect="fillet_chamfer"
       id="path-effect1-8"
       is_visible="true"
       lpeversion="1"
       nodesatellites_param="F,0,0,1,0,9.858653,0,1 @ F,0,1,1,0,9.858653,0,1 @ F,0,1,1,0,9.858653,0,1 @ F,0,1,1,0,9.858653,0,1 @ F,0,1,1,0,9.858653,0,1 @ F,0,1,1,0,9.858653,0,1"
       radius="0"
       unit="px"
       method="auto"
       mode="F"
       chamfer_steps="1"
       flexible="false"
       use_knot_distance="true"
       apply_no_radius="true"
       apply_with_radius="true"
       only_selected="false"
       hide_knots="false" /><inkscape:path-effect
       effect="perspective-envelope"
       up_left_point="-224.3042,-13.195479"
       up_right_point="-178.29733,-13.195479"
       down_left_point="-224.3042,28.172787"
       down_right_point="-178.29733,28.172787"
       id="path-effect3-7"
       is_visible="true"
       lpeversion="1"
       deform_type="perspective"
       horizontal_mirror="true"
       vertical_mirror="false"
       overflow_perspective="false" /></defs><style
     type="text/css"
     id="style1">
	.st0{fill:#0061FF;}
	.st1{display:none;}
	.st2{display:inline;}
	.st3{fill:none;}
</style><path
     id="path3-5-0"
     style="display:inline;fill:#000000;stroke-width:0.112929;fill-opacity:1"
     inkscape:label="fg1"
     inkscape:transform-center-x="-0.27144757"
     inkscape:transform-center-y="-0.41112898"
     d="M 7.9570312 0.017578125 C 7.2040754 0.024536275 5.8854593 0.94152915 5.1914062 1.2402344 C 4.4973531 1.5389394 2.9337838 1.8632256 2.4042969 2.4082031 C 1.8748099 2.9531806 1.5792334 4.5436712 1.2949219 5.2519531 C 1.0106105 5.9602351 0.12671133 7.3085086 0.13085938 8.0722656 C 0.13500738 8.8360225 1.0341959 10.17009 1.3261719 10.873047 C 1.6181481 11.576004 1.9294905 13.162129 2.4648438 13.697266 C 3.0001971 14.232405 4.5683971 14.524697 5.265625 14.810547 C 5.9496586 15.090986 7.2403988 15.956354 8 15.982422 C 8.7596011 15.956352 10.050341 15.090986 10.734375 14.810547 C 11.431603 14.524697 12.999803 14.232402 13.535156 13.697266 C 14.07051 13.162127 14.381852 11.576004 14.673828 10.873047 C 14.965805 10.17009 15.865 8.8360225 15.869141 8.0722656 C 15.873341 7.3085086 14.989389 5.9602349 14.705078 5.2519531 C 14.420766 4.543671 14.12519 2.9531806 13.595703 2.4082031 C 13.066216 1.8632254 11.502648 1.5389394 10.808594 1.2402344 C 10.114541 0.94152903 8.7959247 0.024536275 8.0429688 0.017578125 C 8.0287198 0.017441905 8.014652 0.017075065 8 0.017578125 C 7.985348 0.017074115 7.9712804 0.017441905 7.9570312 0.017578125 z M 7.9902344 2.5 C 7.9936807 2.500038 7.99653 2.499956 8 2.5 C 8.003476 2.4999592 8.0063256 2.5000379 8.0097656 2.5 C 8.8943587 2.4908269 10.773098 2.6066112 11.494141 3.1191406 C 12.215184 3.6316699 12.94253 5.3666149 13.224609 6.2050781 C 13.506688 7.0435414 13.975567 8.8668051 13.710938 9.7109375 C 13.446308 10.55507 12.020806 11.783175 11.310547 12.310547 C 10.600288 12.837919 9.0134994 13.848222 8.1289062 13.857422 C 8.0877074 13.857822 8.044178 13.855263 8 13.851562 C 7.955822 13.855263 7.9122927 13.857831 7.8710938 13.857422 C 6.9865006 13.848249 5.399712 12.837919 4.6894531 12.310547 C 3.9791943 11.783174 2.5536923 10.555071 2.2890625 9.7109375 C 2.0244325 8.8668048 2.493312 7.0435412 2.7753906 6.2050781 C 3.0574692 5.3666149 3.7848167 3.6316699 4.5058594 3.1191406 C 5.2269022 2.6066112 7.1056413 2.4908269 7.9902344 2.5 z " /><path
     id="path1-2"
     style="fill:#000000;fill-opacity:1;stroke-width:5;stroke-linecap:round;stroke-linejoin:bevel"
     inkscape:transform-center-x="-0.85852153"
     inkscape:transform-center-y="2.7924717e-06"
     transform="matrix(0,0.10945841,-0.10945841,0,9.1655156,29.999344)"
     d="m -183.98923,28.172787 h -7.45289 -27.17018 c -4.38163,0 -7.12014,-4.743247 -4.92933,-8.537844 l 3.72645,-6.454393 13.58509,-23.530081 c 2.19081,-3.794597 7.66783,-3.794598 9.85865,-10e-7 l 3.72644,6.4543934 13.5851,23.5300816 c 2.19081,3.794597 -0.5477,8.537844 -4.92933,8.537844 z"
     inkscape:original-d="m -174.13057,28.172787 h -27.1702 -27.17019 l 13.5851,-23.5300812 13.58509,-23.5300818 13.5851,23.5300811 z"
     inkscape:path-effect="#path-effect1-8;#path-effect3-7" /></svg>
